<svg id="visual" viewBox="0 0 900 900" width="900" height="900" xmlns="http://www.w3.org/2000/svg" xmlns:xlink="http://www.w3.org/1999/xlink" version="1.1"><path d="M0 383L25 405.5C50 428 100 473 150 481.8C200 490.7 250 463.3 300 465.8C350 468.3 400 500.7 450 496C500 491.3 550 449.7 600 447.3C650 445 700 482 750 478C800 474 850 429 875 406.5L900 384L900 901L875 901C850 901 800 901 750 901C700 901 650 901 600 901C550 901 500 901 450 901C400 901 350 901 300 901C250 901 200 901 150 901C100 901 50 901 25 901L0 901Z" fill="#1F1147" stroke-linecap="round" stroke-linejoin="miter"></path></svg>