<svg xmlns="http://www.w3.org/2000/svg" version="1.1" xmlns:xlink="http://www.w3.org/1999/xlink" xmlns:svgjs="http://svgjs.com/svgjs" width="140" height="140" preserveAspectRatio="none" viewBox="0 0 140 140"><g mask="url(&quot;#SvgjsMask1087&quot;)" fill="none"><path d="M28.17 7.82a13.29 13.29 0 1 0-21.15 16.09z" fill="rgba(92, 92, 92, 0.29)"></path><path d="M74.33 110.98L83.16 110.98L83.16 116.61L74.33 116.61z" stroke="rgba(92, 92, 92, 0.29)"></path><path d="M44.85 47.22L50.19 47.22L50.19 59.39L44.85 59.39z" fill="rgba(92, 92, 92, 0.29)"></path><path d="M15.1 39.35L17.88 39.35L17.88 42.13L15.1 42.13z" fill="rgba(92, 92, 92, 0.29)"></path><path d="M139.55 73.61L142.9 73.61L142.9 86.18L139.55 86.18z" stroke="rgba(92, 92, 92, 0.29)"></path><path d="M6.87 48.06L20.3 48.06L20.3 61.42L6.87 61.42z" fill="rgba(92, 92, 92, 0.29)"></path><path d="M119.73 49.52L131.9 49.52L131.9 61.69L119.73 61.69z" stroke="rgba(92, 92, 92, 0.29)"></path><path d="M61.78 133.36L71.39 133.36L71.39 142.97L61.78 142.97z" fill="rgba(92, 92, 92, 0.29)"></path><path d="M14.02 125.88L21.35 125.88L21.35 133.21L14.02 133.21z" fill="rgba(92, 92, 92, 0.29)"></path><path d="M89.45 122.99 a3.85 3.85 0 1 0 7.7 0 a3.85 3.85 0 1 0 -7.7 0z" stroke="rgba(92, 92, 92, 0.29)"></path><path d="M126.11 125.78 a1.64 1.64 0 1 0 3.28 0 a1.64 1.64 0 1 0 -3.28 0z" stroke="rgba(92, 92, 92, 0.29)"></path><path d="M131.7 77.76 a5.35 5.35 0 1 0 10.7 0 a5.35 5.35 0 1 0 -10.7 0z" fill="rgba(92, 92, 92, 0.29)"></path><path d="M86.4 40.13a5.39 5.39 0 1 0 9.24-5.56z" stroke="rgba(92, 92, 92, 0.29)"></path></g><defs><mask id="SvgjsMask1087"><rect width="140" height="140" fill="#ffffff"></rect></mask></defs></svg>